<svg width="119" height="28" viewBox="0 0 119 28" fill="none" xmlns="http://www.w3.org/2000/svg">
<path fill-rule="evenodd" clip-rule="evenodd" d="M-0.00012207 23.5243C-0.00012207 23.6908 0.00895959 23.8551 0.027442 24.017L24.0134 0.0276139C23.8515 0.00912886 23.6872 0 23.5208 0H4.48001C2.00734 0 -0.00012207 2.0078 -0.00012207 4.48083V23.5243ZM27.9728 4.04756C27.9913 4.2095 28.0004 4.37386 28.0004 4.54027V23.5838C28.0004 23.7502 27.9913 23.9145 27.9728 24.0765L17.9598 14.062L27.9728 4.04756ZM3.98914 27.9697L14.0022 17.9552L24.0152 27.9697C23.8533 27.9882 23.6889 27.9973 23.5225 27.9973H4.48177C4.31538 27.9973 4.15105 27.9882 3.98914 27.9697Z" fill="#FF4A31"/>
<path d="M35.9498 16.2779C35.9498 18.5603 37.2862 19.7324 39.8973 19.7324C40.5346 19.7324 41.6037 19.5885 42.2205 19.4034V16.7097C41.6654 16.8742 41.2542 16.9359 40.7197 16.9359C39.6506 16.9359 39.2805 16.5863 39.2805 15.6198V11.4867H42.3233V8.71073H39.2805V5.19449L35.9498 5.91419V8.71073H33.7499V11.4867H35.9498V16.2779Z" fill="black"/>
<path d="M43.6236 19.5885H46.9543V12.6794C47.5094 11.8157 48.4346 11.3016 49.4831 11.3016C50.0588 11.3016 50.6345 11.425 51.0663 11.6307V8.73129C50.7784 8.54623 50.4495 8.48454 49.8121 8.46398C48.6402 8.46398 47.6739 8.93692 46.9543 9.80056V8.71073H43.6236V19.5885Z" fill="black"/>
<path d="M55.7465 8.71073H52.4158V15.4142C52.4158 17.9846 54.2045 19.7941 56.7539 19.7941C57.8642 19.7941 58.8716 19.4651 59.6734 18.8482V19.5885H63.0041V8.71073H59.6734V16.0722C59.2211 16.6274 58.5632 16.9359 57.7203 16.9359C56.5278 16.9359 55.7465 16.1545 55.7465 14.9618V8.71073Z" fill="black"/>
<path d="M75.0384 18.1491L72.8385 16.1956C72.3245 16.7302 71.5638 17.0181 70.6591 17.0181C69.405 17.0181 68.4181 16.319 67.9864 15.2908H75.7374V14.4683C75.7374 11.0343 73.4347 8.52567 70.2479 8.52567C67.0612 8.52567 64.5734 10.9932 64.5734 14.1599C64.5734 17.3266 67.164 19.7941 70.4947 19.7941C72.3039 19.7941 73.6609 19.3006 75.0384 18.1491ZM70.1863 11.24C71.2554 11.24 72.1189 11.9185 72.4684 12.9672H67.9247C68.2536 11.8774 69.076 11.24 70.1863 11.24Z" fill="black"/>
<path d="M77.2944 19.5885H80.625V14.7151L84.7987 19.5885H89.0135L83.8529 13.6252L88.6845 8.71073H84.9632L80.625 13.1523V4.47479L77.2944 5.19449V19.5885Z" fill="black"/>
<path d="M89.562 19.5885H92.8927V12.227C93.345 11.6718 94.0029 11.3633 94.8459 11.3633C96.0384 11.3633 96.8196 12.1447 96.8196 13.3374V19.5885H100.15V12.885C100.15 10.3146 98.3616 8.5051 95.8122 8.5051C94.702 8.5051 93.6945 8.83411 92.8927 9.45099V4.47479L89.562 5.19449V19.5885Z" fill="black"/>
<path d="M101.637 14.1599C101.637 17.3266 104.228 19.7941 107.538 19.7941C110.848 19.7941 113.439 17.3266 113.439 14.1599C113.439 10.9932 110.848 8.5051 107.538 8.5051C104.228 8.5051 101.637 10.9932 101.637 14.1599ZM107.538 16.9153C106.037 16.9153 104.886 15.7021 104.886 14.1599C104.886 12.5971 106.058 11.3839 107.538 11.3839C109.018 11.3839 110.19 12.5971 110.19 14.1599C110.19 15.7021 109.039 16.9153 107.538 16.9153Z" fill="black"/>
<path d="M116.666 7.70315C117.674 7.70315 118.496 6.88064 118.496 5.87306C118.496 4.86548 117.674 4.04297 116.666 4.04297C115.659 4.04297 114.836 4.86548 114.836 5.87306C114.836 6.88064 115.659 7.70315 116.666 7.70315ZM114.528 24.0712C116.954 24.0712 118.331 22.8168 118.331 20.6372V8.71073H115.001V20.4521C115.001 21.1307 114.631 21.4391 113.829 21.4391C113.438 21.4391 113.171 21.4186 112.863 21.3569V23.8655C113.233 23.9889 113.952 24.0712 114.528 24.0712Z" fill="black"/>
</svg>
